<svg width="108" height="27" viewBox="0 0 108 27" fill="none" xmlns="http://www.w3.org/2000/svg">
    <path
        d="M7.5836 8.18949C7.31656 8.18578 6.92713 8.46395 6.78619 8.72357C6.35967 9.5284 6.05183 10.3963 5.64385 11.2122C5.42503 11.6499 5.52517 11.9095 5.83671 12.2581C6.67492 13.1928 7.53909 14.1163 8.23266 15.1548C9.06345 16.3973 8.95218 17.7213 7.89144 18.7598C7.09032 19.5461 6.14455 20.2545 5.13573 20.7367C3.67443 21.4302 2.09444 21.8716 0.577508 22.4539C0.366101 22.5355 0.039719 22.8062 0.0137567 22.9843C-0.0752566 23.548 0.239999 23.7112 0.447697 23.8039C2.19458 24.5679 3.96743 25.2689 5.81075 26.0181C6.40417 25.1243 7.00131 24.2935 7.52426 23.4145C10.3467 18.6782 10.9698 13.7973 8.37359 8.74582C8.23637 8.48249 7.85806 8.1932 7.5836 8.18949V8.18949Z"
        fill="currentColor"></path>
    <path
        d="M70.1562 2.04752L70.0932 1.98447C69.2513 1.14255 67.8901 1.14255 67.0482 1.98447C66.2063 2.82638 66.2063 4.18755 67.0482 5.02946L67.1112 5.09252C68.3278 6.30903 69.6926 5.55613 70.1562 5.09252C70.9982 4.2506 70.9982 2.88943 70.1562 2.04752Z"
        fill="currentColor"></path>
    <path
        d="M61.2031 2.1328C60.9842 2.35162 60.8173 2.60754 60.7061 2.87828L63.9736 5.70817C64.1368 5.61174 64.2888 5.49676 64.4298 5.35953L64.4965 5.29277C65.7872 4.00208 64.9898 2.55932 64.4965 2.06604C63.6064 1.1759 62.1599 1.1759 61.2698 2.06604L61.2031 2.1328V2.1328Z"
        fill="currentColor"></path>
    <path
        d="M12.6871 0.675255C12.6871 0.675255 11.8823 2.34796 11.5188 3.20472C11.3704 3.55335 11.274 3.95762 11.2926 4.33222C11.4261 7.31046 11.5485 10.2924 11.7636 13.2632C11.9861 16.2897 13.4771 18.5002 16.2773 19.776C18.2356 20.6699 20.3163 21.0741 22.4415 21.1965C25.123 21.3486 27.812 21.4302 30.5009 21.4525C34.9664 21.4895 39.3985 21.1706 43.7676 20.2953C45.1176 20.121 49.3309 19.0305 50.0616 18.6337C50.885 18.1886 50.8293 18.2925 51.6564 18.5039C53.6666 19.012 58.9741 18.8896 60.5021 18.4371C61.5258 18.1367 62.4604 17.8919 62.6867 17.1909C63.625 18.6708 64.1517 19.4237 65.7687 19.279C67.3821 19.1344 67.523 19.0528 69.1067 18.7005C70.4308 18.4075 71.4063 17.5507 71.8031 16.2637C72.0479 15.4663 72.0182 15.0843 72.085 14.4872C72.3298 12.3768 72.0034 10.374 70.7832 8.59744C70.5866 8.31186 70.4642 8.02998 69.7706 8.07449C69.5555 8.08933 69.2328 8.40829 69.0993 8.66791C68.6988 9.4542 68.3946 10.2924 67.9941 11.0824C67.7678 11.5275 67.8717 11.8427 68.2203 12.1654C68.9621 12.8478 69.6482 13.5228 70.5792 14.4649C68.8063 14.6504 68.1944 14.8432 66.6663 14.9619C65.1308 15.0806 62.338 15.0583 61.5517 13.6786C60.9769 12.6661 60.606 11.9688 59.6713 11.279C58.1136 10.1292 55.599 10.1366 53.496 11.2196C52.5465 11.7092 51.5451 12.6661 51.3819 13.8047C51.3078 14.3128 51.1335 14.7319 50.5623 14.8803C41.8575 17.1168 31.6432 18.1627 23.0683 17.2021C20.8838 16.9573 18.7215 16.5975 16.6482 15.789C14.8086 15.0695 13.9741 13.7973 14.0112 11.8056C14.0742 8.13754 14.0334 4.46574 14.0149 0.793939C14.0149 0.793939 14.0742 0.0818324 13.3399 0.0187812C13.0506 -0.00718098 12.676 0.682673 12.676 0.682673L12.6871 0.675255ZM59.7937 15.9188L52.6652 15.8335C52.6652 15.8335 53.1919 13.0184 56.0922 12.9109C60.2685 12.7514 59.7937 15.9225 59.7937 15.9225V15.9188Z"
        fill="currentColor"></path>
    <path
        d="M2.93275 1.0166C2.93275 1.0166 2.99209 0.304489 2.25773 0.241437C1.96844 0.215475 1.59384 0.905329 1.59384 0.905329C1.59384 0.905329 0.789012 2.57804 0.425541 3.43479C0.277186 3.78343 0.180755 4.1877 0.199299 4.56229C0.266059 6.0236 0.32911 7.48861 0.399579 8.94991H0.392161C0.488592 11.0306 0.588732 13.1113 0.688872 15.192C0.748215 16.4715 0.818684 17.7474 0.885444 19.0529H2.06858C2.35787 17.599 2.86228 16.1674 2.89566 14.7247C2.94017 12.7849 2.94017 3.6462 2.92533 1.0203L2.93275 1.0166Z"
        fill="currentColor"></path>
    <path
        d="M79.0613 7.65529C78.4197 8.3266 77.9412 9.09805 77.626 9.914L87.5732 18.1663C88.0517 17.8696 88.5041 17.5172 88.9121 17.0907L89.105 16.8904C92.8769 12.9516 90.3994 8.68636 88.8973 7.24731C86.1787 4.63996 81.8615 4.73639 79.2542 7.45501L79.0613 7.65529V7.65529Z"
        fill="currentColor"></path>
    <path
        d="M100.888 18.7338C104.606 18.7338 107.62 15.7199 107.62 12.0021C107.62 8.28436 104.606 5.27051 100.888 5.27051C97.1703 5.27051 94.1565 8.28436 94.1565 12.0021C94.1565 15.7199 97.1703 18.7338 100.888 18.7338Z"
        fill="currentColor"></path>
</svg>