<svg width="16" height="15" viewBox="0 0 16 15" fill="none" xmlns="http://www.w3.org/2000/svg">
<path d="M5.77954 6.88449C5.98744 6.72362 6.18619 6.54781 6.37579 6.35874C6.5654 6.16967 6.74169 5.97065 6.90302 5.76334C6.12964 4.53521 5.74379 3.12381 5.78537 1.65852C5.81613 0.569701 6.67683 -0.000828354 7.51174 9.02695e-07C8.34583 -0.000828354 9.20652 0.569701 9.23729 1.65852C9.27887 3.12381 8.89301 4.5377 8.11964 5.76334C8.28096 5.97065 8.45726 6.16884 8.64686 6.35791C8.83646 6.54699 9.03521 6.72279 9.24394 6.88366C10.4739 6.11245 11.8909 5.72768 13.3603 5.76914C14.4522 5.80065 15.0243 6.65894 15.0235 7.49068C15.0243 8.32242 14.4522 9.18153 13.3595 9.21139C11.8901 9.25285 10.4739 8.86808 9.24311 8.09687C9.03521 8.25774 8.83563 8.43437 8.64603 8.62262C8.45643 8.81169 8.28013 9.00988 8.1188 9.21719C8.89218 10.4437 9.27887 11.8567 9.23646 13.322C9.20569 14.4117 8.345 14.9814 7.51091 14.9805C6.67683 14.9814 5.8153 14.4108 5.78537 13.322C5.74462 11.8575 6.12964 10.4445 6.90302 9.21719C6.74086 9.00988 6.56456 8.81086 6.37579 8.62179C6.18702 8.43355 5.98744 8.25774 5.77954 8.09604C4.54796 8.86808 3.13176 9.25202 1.66318 9.21056C0.57047 9.17988 -0.000832558 8.3216 -9.53674e-07 7.48985C-0.000832558 6.65811 0.571301 5.799 1.66318 5.76914C3.1326 5.72851 4.54962 6.11328 5.77954 6.88449ZM8.24022 1.68671C8.22525 1.17589 7.83856 0.99428 7.51174 0.99428C7.18493 0.99428 6.79741 1.17589 6.78327 1.68671C6.75167 2.79294 7.00198 3.86434 7.51174 4.82545C8.02068 3.86517 8.27098 2.79377 8.24022 1.68671ZM13.332 8.21711C13.8443 8.20218 14.0264 7.81658 14.0264 7.49068C14.0256 7.16395 13.8443 6.77918 13.332 6.76425C12.2227 6.73274 11.1475 6.98317 10.1845 7.49068C11.1475 7.99901 12.2219 8.24862 13.332 8.21711ZM6.78244 13.2947C6.79741 13.8055 7.1841 13.9871 7.51091 13.9871C7.83773 13.9871 8.22441 13.8055 8.23938 13.2947C8.27015 12.1884 8.01984 11.1162 7.51091 10.1559C7.00198 11.117 6.75084 12.1893 6.78244 13.2947ZM6.61446 7.49068C6.77496 7.62585 6.93129 7.76931 7.08098 7.91858C7.2315 8.06867 7.37453 8.22457 7.51091 8.38462C7.64646 8.22374 7.79033 8.06867 7.94001 7.91941C8.09053 7.76931 8.24604 7.62585 8.40736 7.49068C8.24604 7.35551 8.09053 7.21205 7.94001 7.06195C7.79033 6.91269 7.64563 6.75679 7.51091 6.59674C7.37536 6.75679 7.2315 6.91269 7.08098 7.06278C6.93129 7.21205 6.77496 7.35551 6.61446 7.49068ZM0.997075 7.49068C0.997075 7.81658 1.17919 8.20218 1.69145 8.21711C2.80079 8.24862 3.87521 7.99819 4.83902 7.49068C3.87604 6.98317 2.80079 6.73357 1.69145 6.76425C1.17919 6.77918 0.997075 7.16478 0.997075 7.49068Z" fill="#FFD04C"/>
</svg>
