<?xml version="1.0" standalone="no"?>
<!DOCTYPE svg PUBLIC "-//W3C//DTD SVG 20010904//EN"
 "http://www.w3.org/TR/2001/REC-SVG-20010904/DTD/svg10.dtd">
<svg version="1.0" xmlns="http://www.w3.org/2000/svg"
 width="700.000000pt" height="700.000000pt" viewBox="0 0 700.000000 700.000000"
 preserveAspectRatio="xMidYMid meet">
<metadata>
Created by potrace 1.14, written by Peter Selinger 2001-2017
</metadata>
<g transform="translate(0.000000,700.000000) scale(0.100000,-0.100000)"
fill="#000000" stroke="none">
<path d="M3165 6968 c-98 -51 -172 -105 -260 -191 -81 -77 -84 -83 -104 -156
-11 -42 -22 -87 -25 -101 -2 -14 -9 -46 -15 -72 -39 -169 -55 -337 -56 -573 0
-252 16 -396 66 -605 12 -47 22 -92 24 -100 8 -38 79 -249 96 -284 11 -22 19
-44 19 -49 0 -29 162 -335 272 -513 9 -14 -104 -169 -182 -251 -86 -89 -159
-153 -246 -213 l-71 -49 -59 36 c-189 114 -452 236 -659 304 -409 136 -778
182 -1247 156 -97 -5 -142 -13 -190 -31 -220 -82 -384 -226 -492 -431 l-36
-67 0 -276 0 -277 31 -60 c36 -68 103 -163 151 -215 39 -42 152 -140 161 -140
3 0 23 -12 44 -26 86 -58 157 -83 260 -91 184 -15 681 -7 712 11 3 2 31 7 61
10 30 4 87 13 125 21 39 8 81 16 95 18 125 23 424 121 580 189 86 38 276 136
370 191 52 31 99 52 105 48 136 -100 313 -270 411 -392 32 -41 65 -80 71 -87
15 -15 13 -19 -49 -120 -102 -167 -227 -444 -295 -652 -46 -143 -95 -341 -107
-435 -2 -16 -7 -46 -10 -65 -12 -72 -15 -94 -23 -174 -10 -105 -10 -505 0
-619 9 -104 33 -164 111 -281 92 -138 217 -249 361 -325 l60 -31 273 0 273 0
62 31 c95 49 173 105 263 191 74 72 82 83 97 140 70 271 101 505 101 763 0 93
-11 271 -18 315 -3 14 -7 45 -10 70 -25 192 -107 487 -189 675 -43 100 -157
322 -210 410 l-55 89 31 46 c102 150 219 273 362 381 116 87 100 85 196 27
254 -153 583 -291 850 -357 284 -71 487 -95 794 -95 256 0 354 10 445 45 203
78 369 227 473 423 l37 69 0 276 0 276 -31 60 c-17 33 -57 95 -87 138 -60 83
-189 213 -213 214 -8 1 -41 8 -74 17 -33 10 -69 19 -80 21 -11 3 -31 7 -45 10
-51 11 -153 29 -220 39 -183 28 -580 28 -745 1 -224 -38 -424 -88 -540 -135
-247 -99 -378 -163 -555 -271 l-95 -57 -80 56 c-152 106 -302 261 -398 410
-25 38 -27 46 -14 60 7 10 24 35 37 57 12 22 32 56 43 75 98 170 223 462 281
658 93 309 129 557 130 892 1 260 -9 377 -39 457 -83 219 -234 388 -440 492
l-60 31 -275 0 -275 0 -60 -32z m445 -486 c138 -26 177 -72 188 -221 29 -402
-33 -815 -175 -1166 -42 -105 -116 -265 -122 -265 -4 0 -25 39 -47 88 -203
431 -283 861 -252 1343 7 112 54 191 131 224 34 14 193 12 277 -3z m-35 -2707
c70 -50 174 -148 235 -223 l43 -53 -24 -27 c-116 -129 -180 -193 -301 -301
l-27 -24 -38 33 c-94 81 -218 206 -285 288 l-28 33 156 175 156 175 27 -17
c14 -9 53 -36 86 -59z m-2455 31 c77 -7 152 -16 170 -21 8 -2 35 -7 60 -10 92
-12 297 -64 438 -111 145 -49 382 -151 382 -165 0 -9 -202 -103 -310 -144 -93
-36 -315 -97 -395 -109 -67 -10 -99 -16 -130 -22 -50 -10 -416 -13 -480 -4
-33 5 -82 11 -110 15 -27 3 -57 8 -65 10 -8 2 -31 7 -50 10 -62 10 -69 15 -91
73 -29 77 -37 201 -16 273 28 96 112 205 162 211 40 5 366 0 435 -6z m4975 0
c99 -3 196 -9 215 -12 48 -8 113 -73 153 -153 27 -55 31 -75 32 -145 0 -139
-40 -232 -117 -272 -85 -44 -587 -34 -818 17 -192 42 -309 76 -455 132 -110
43 -275 119 -275 128 0 12 292 136 416 178 250 83 401 119 544 130 52 3 102 5
110 4 8 -1 96 -4 195 -7z m-2511 -1800 c64 -113 163 -429 182 -578 3 -24 7
-49 10 -56 24 -74 24 -621 -1 -662 -2 -3 -6 -27 -9 -54 -4 -27 -11 -57 -16
-66 -5 -10 -52 -32 -107 -50 -183 -62 -316 -42 -385 59 -55 79 -69 160 -64
371 3 102 7 203 10 225 3 22 11 78 17 125 9 69 33 196 54 290 31 140 115 402
160 505 l27 60 39 -45 c21 -24 59 -80 83 -124z"/>
</g>
</svg>
