<svg xmlns="http://www.w3.org/2000/svg" xmlns:xlink="http://www.w3.org/1999/xlink" style="shape-rendering:geometricPrecision; text-rendering:geometricPrecision; image-rendering:optimizeQuality; fill-rule:evenodd; clip-rule:evenodd" viewBox="-0.5 -0.5 180 180"><g><path style="opacity:0.921" fill="#8d5ea7" d="M 82.5,-0.5 C 87.1667,-0.5 91.8333,-0.5 96.5,-0.5C 103.237,2.40736 107.737,7.40736 110,14.5C 112.13,33.9787 107.963,51.9787 97.5,68.5C 100.833,73.8333 105.167,78.1667 110.5,81.5C 129.519,68.9955 149.852,65.8288 171.5,72C 175.037,74.94 177.703,78.44 179.5,82.5C 179.5,87.1667 179.5,91.8333 179.5,96.5C 176.593,103.237 171.593,107.737 164.5,110C 145.021,112.13 127.021,107.963 110.5,97.5C 105.167,100.833 100.833,105.167 97.5,110.5C 109.822,129.578 112.989,149.911 107,171.5C 104.06,175.037 100.56,177.703 96.5,179.5C 91.8333,179.5 87.1667,179.5 82.5,179.5C 76.1873,176.686 71.6873,172.019 69,165.5C 66.7106,145.661 70.8773,127.327 81.5,110.5C 77.8763,105.509 73.5429,101.175 68.5,97.5C 51.6612,108.126 33.3278,112.293 13.5,110C 6.98101,107.313 2.31434,102.813 -0.5,96.5C -0.5,91.8333 -0.5,87.1667 -0.5,82.5C 2.40736,75.7632 7.40736,71.2632 14.5,69C 33.954,66.9901 51.954,71.1568 68.5,81.5C 73.8333,78.1667 78.1667,73.8333 81.5,68.5C 68.9931,49.4682 65.8265,29.1349 72,7.5C 74.94,3.96319 78.44,1.29652 82.5,-0.5 Z M 85.5,12.5 C 88.1873,12.3359 90.854,12.5026 93.5,13C 95.3333,13.5 96.5,14.6667 97,16.5C 98.3695,30.2895 95.8695,43.2895 89.5,55.5C 83.1312,43.2946 80.6312,30.2946 82,16.5C 82.6897,14.6498 83.8564,13.3164 85.5,12.5 Z M 88.5,80.5 C 92.4154,82.7433 95.7488,85.7433 98.5,89.5C 95.8333,92.8333 92.8333,95.8333 89.5,98.5C 86.1667,95.8333 83.1667,92.8333 80.5,89.5C 83.189,86.4802 85.8556,83.4802 88.5,80.5 Z M 16.5,81.5 C 30.2863,80.6289 43.2863,83.2955 55.5,89.5C 42.3178,96.6713 28.4845,98.6713 14,95.5C 11.4246,90.034 12.258,85.3673 16.5,81.5 Z M 147.5,81.5 C 152.511,81.3341 157.511,81.5007 162.5,82C 166.277,84.9109 167.444,88.7442 166,93.5C 165.5,95.3333 164.333,96.5 162.5,97C 148.705,98.3688 135.705,95.8688 123.5,89.5C 131.172,85.5884 139.172,82.9217 147.5,81.5 Z M 88.5,123.5 C 91.0483,126.248 92.8817,129.581 94,133.5C 97.4595,143.723 98.1261,154.056 96,164.5C 85.8695,169.192 81.0362,166.025 81.5,155C 81.8593,144.034 84.1926,133.534 88.5,123.5 Z"></path></g></svg>